# xmcd
#
# Track frame offsets:
#   150
#   20448
#   35280
#   51826
#   67988
#   86647
#   104497
#   120936
#   135906
#   154620
#   174821
#   191017
#   212476
#   229177
#   249118
#
# Disc length: 3560 seconds
#
# Revision: 0
# Processed by: cddbd v1.5.1PL0 Copyright (c) Steve Scherf et al.
# Submitted via: Media_Universe 3.0
#
DISCID=b10de60f
DTITLE=Mark Wills - Mark Wills
DYEAR=1900
DGENRE=Country
TTITLE0=I'm Not Gonna Do Anything Without You
TTITLE1=19 Something
TTITLE2=Almost Doesn't Count
TTITLE3=Anywhere But Memphis
TTITLE4=Back At One
TTITLE5=Because I Love You
TTITLE6=Don't Laugh At Me
TTITLE7=I Do (cherish you)
TTITLE8=In My Arms
TTITLE9=Lost In A Kiss
TTITLE10=Right Here
TTITLE11=She's In Love
TTITLE12=This Can't Be Love
TTITLE13=When You Think Of Me
TTITLE14=Wish You Were Here
EXTD=
EXTT0=
EXTT1=
EXTT2=
EXTT3=
EXTT4=
EXTT5=
EXTT6=
EXTT7=
EXTT8=
EXTT9=
EXTT10=
EXTT11=
EXTT12=
EXTT13=
EXTT14=
PLAYORDER=
